<svg viewBox="0 0 136 133" fill="none" xmlns="http://www.w3.org/2000/svg">
<path d="M112.332 3.0081C111.587 4.57884 117.034 25.6674 118.555 27.0904C119.283 27.5373 122.078 27.3237 124.79 26.4485L129.984 24.9957L126.831 13.6987C124.982 7.47955 123.496 2.02129 123.413 1.35973C123.249 0.0366171 112.945 1.45383 112.332 3.0081Z" fill="black"/>
<path d="M120.733 20.9803C118.6 21.247 117 21.647 117 21.7803C117 21.9136 118.467 32.7136 120.333 45.7803C122.2 58.847 123.4 71.1136 122.867 73.1136C121.133 81.1136 108.2 111.514 105.4 114.314C103.8 116.047 101 117.38 99.1333 117.38C97.4 117.38 94.8667 117.78 93.6667 118.18C91.5333 118.98 91.5333 118.847 93.5333 114.98C94.7333 112.714 95.6667 108.714 95.6667 106.047C95.6667 101.914 95.2667 101.247 93 101.647C91.4 101.914 90.4667 102.447 90.6 102.847C90.8667 103.38 89.9333 104.98 88.4667 106.58C87 108.18 86.3333 110.447 86.7333 112.047C87.2667 114.18 86.4667 115.514 83.2667 117.514C76.7333 121.38 69 120.58 69 116.047C69 114.58 67.6667 113.38 65.6667 112.847C63.8 112.314 62.3333 111.514 62.3333 110.847C62.3333 110.18 61.1333 109.914 59.6667 110.314C58.2 110.714 57 111.514 57 112.18C57 115.38 60.7333 120.447 64.8667 122.98C67.5333 124.58 71.1333 127.38 72.7333 129.114C75.8 132.314 76.3333 132.447 88.7333 131.514C106.2 130.314 110.867 128.847 115.267 123.38C119.933 117.514 135.533 78.1803 135.667 72.047C135.667 67.9136 131.8 36.7136 129.667 24.3136C128.867 19.9136 128.6 19.7803 120.733 20.9803Z" fill="black"/>
<path d="M49.9321 49.7847C28.2556 57.1623 23.7103 59.0801 23.5912 61.2267C23.4354 62.8413 19.9131 66.0249 14.29 69.7545C5.60315 75.5668 2.79181 79.3695 3.67296 84.3874C3.88866 85.5754 3.76042 87.589 3.31103 88.8229C2.73782 90.199 3.28863 94.3041 4.48615 98.0973C6.20215 103.592 8.12428 106.266 13.5188 110.839L20.3445 116.782L34.9764 115.772C52.5345 114.559 52.0392 115.128 55.0875 95.4045C57.2602 80.4192 59.6174 75.846 63.9934 77.2812C65.6263 77.703 71.5805 82.6379 77.3053 88.1231C82.8972 93.6176 88.8513 98.5524 90.2274 99.1256C92.154 99.9281 94.8922 98.9371 100.524 95.3405C115.917 85.9911 118.173 83.8305 119.347 77.6015C120.058 74.3448 120.883 70.8129 121.341 69.712C122.85 66.4002 117.56 53.6677 113.143 49.696C111.01 47.8385 109.124 45.6967 109.088 45.1646C108.941 43.0364 100.299 41.7621 91.387 42.3775C86.1993 42.7358 82.1721 42.4793 82.117 41.6812C81.9608 39.42 76.9705 40.7002 49.9321 49.7847ZM104.694 51.215C109.102 55.0538 114.535 71.7859 112.843 76.3133C111.141 80.7076 98.4186 90.0063 93.497 90.3462C90.3046 90.5666 87.4881 88.4891 76.731 77.8717C63.9739 65.3876 61.4094 61.1542 64.9226 57.8376C66.1701 56.5486 92.4151 49.5237 99.0384 48.6653C100.359 48.4404 102.846 49.6052 104.694 51.215ZM51.2594 67.0676C52.6083 71.1176 47.8503 102.854 45.3921 105.964C43.9245 107.937 41.4339 108.643 33.0539 109.222C19.4862 110.159 17.5045 108.559 12.8566 93.5097C9.70904 82.7677 9.69986 82.6347 12.0526 79.9328C13.2909 78.5108 19.3314 75.0196 25.427 72.3266C31.5226 69.6336 37.609 66.8075 39.0263 66.0414C40.4435 65.2752 43.5992 64.5227 45.8605 64.3665C49.3097 63.9946 50.4198 64.5862 51.2594 67.0676Z" fill="black"/>
</svg>
